<?xml version="1.0" encoding="utf-8"?>
<!-- Generator: Adobe Illustrator 19.0.0, SVG Export Plug-In . SVG Version: 6.00 Build 0)  -->
<svg version="1.1" id="Layer_1" xmlns="http://www.w3.org/2000/svg" xmlns:xlink="http://www.w3.org/1999/xlink" x="0px" y="0px"
	 viewBox="416 -616 1792 1792" style="enable-background:new 416 -616 1792 1792;" xml:space="preserve">
<style type="text/css">
	.st0{fill:none;}
	.st1{fill:url(#SVGID_1_);}
	.st2{fill:url(#SVGID_2_);}
	.st3{fill:url(#SVGID_3_);}
	.st4{fill:url(#SVGID_4_);}
	.st5{fill:url(#SVGID_5_);}
	.st6{fill:url(#SVGID_6_);}
	.st7{fill:url(#Blazer);}
</style>
<pattern  x="416" y="1176" width="156.2" height="150.1" patternUnits="userSpaceOnUse" id="Blazer" viewBox="43 -296.8 156.2 150.1" style="overflow:visible;">
	<g>
		<polygon class="st0" points="43,-296.8 199.2,-296.8 199.2,-146.7 43,-146.7 		"/>
		<g>
			
				<linearGradient id="SVGID_1_" gradientUnits="userSpaceOnUse" x1="-39359.4414" y1="-51426.8555" x2="-39359.4414" y2="-51316.2227" gradientTransform="matrix(1 0 0 -1 39570.9453 -51556.7969)">
				<stop  offset="0.1779" style="stop-color:#FAA61A"/>
				<stop  offset="1" style="stop-color:#FFC20E"/>
			</linearGradient>
			<path class="st1" d="M252.2-209c-4.3,9.4,1.2,18,1.2,28.2c0,6.8-5.2,13.7-12.6,13.7c-11.8,0-13.5-14.8-7-17.8
				c5.8-2.6,10.7,3.3,10.2,10.3c8.5-12.9,0.2-25-8.8-34.4c-8.8-9-10-18.1-4.7-23c-6.9,3.1-13.4,10.4-8.5,25.4
				c3.5,10.6,1.1,19.1-5.6,19.1c-3.5,0-7.4-4.6-7.1-9.4c-3.5,7.5-4.2,18.5,1.2,29.2c0,0-10.7-9.4-8.1-27.5
				c2.6-18,18.9-32.1,23.3-48.7c4.4-16.7-6.3-30.3-14-33.9c7.8,13.1-3.4,22.2-17,38.5c-10.7,12.8-8.9,23.3-7.3,30.2
				c-8-7.4-7.9-18.7-5.4-25.1c0,0-11,7.9-9.6,20.8c1.2,11.8,8,14.8,11.7,24.1c3.4,8.6,1.1,15.9-4.4,16.8c-5.6,0.9-9.7-2.7-10.2-9.7
				c-0.5-6.2,3.3-12.8-0.2-18.9c1.3,8.7-14.6,14.6-13,29.4c1.1,9.9,9.7,17,17.1,19.9c-0.9-3-0.4-5.7,1.6-7.1c3-2.1,8.3-0.2,11.8,4.1
				c3.5,4.4,3.9,9.6,0.8,11.6c-2.8,1.9-8.3,1-11.8-2.7c2.2,15.4,16.7,27.1,31.2,31.7c-3.8-13,0.5-24.7,13.3-34.4
				c-4.2,9-2.9,20.6,5.1,25.8c-2.6-21.3,39-22.4,41.3-47.7C268.2-186.4,250.7-197.2,252.2-209z"/>
		</g>
		<g>
			
				<linearGradient id="SVGID_2_" gradientUnits="userSpaceOnUse" x1="-39438.8789" y1="-51509.3945" x2="-39438.8789" y2="-51393.3906" gradientTransform="matrix(1 0 0 -1 39570.9453 -51556.7969)">
				<stop  offset="0.1779" style="stop-color:#FFDD00"/>
				<stop  offset="1" style="stop-color:#FFC20E"/>
			</linearGradient>
			<path class="st2" d="M150.2-181.7c-10.2,27.3-53.7,35.4-58.1,55.4c2.5-4,10.2-6.4,12.8-1.8c1.9,3.3-0.1,7.9-5.1,10.6
				c-4.6,2.5-9.8,1.5-11.9-2c-2.8-4.5-0.6-10.9,3.1-15.3c-7.5,2-18.7,10.9-16.6,28.6c2.1,17.8,14.7,29.4,9.3,44.3
				c16.5-15.6,2.4-34,23-46.1c-11.2,13-15.7,40.4,1.3,62.8c-3.8-13.3-3.7-21.6-1.3-30.6c0,17.5,5,22.5,7.8,39.2
				c3.1,18.2-0.2,30-8.7,36.6c11.1-4,26.3-13.9,25.8-31.4c-0.3-10.5-2.5-14-4.1-22.8c-1.8-9.5,1.6-12.9,5-13.3
				c4.5-0.6,8.4,4.3,8.7,11.7c0.5,13.7-6.3,20.8-2.7,36.2c1.9-15.3,16.6-21.6,17.2-36.9c0.8-19.8-26.6-36.6-14.8-59.8
				c-0.8,11.8,2.1,19,8.2,25.2c-2.8-5.7-2.3-13.5,3.3-14.2c3.3-0.4,7.6,3.1,4.9,13.8c-3.1,12.4-3.6,28.3,9.9,41.8
				c-10-26.9,20-38.2,10.5-62.8c4.9,3.9,8.1,14.1,3.1,24.4c0,0,12.3-10.7,8.6-24.4c-4.5-16.8-28.1-26.1-34.3-41.8
				c0.3,5.9,0.8,10.2,4.2,18C147.3-147.2,149-171.4,150.2-181.7z"/>
			
				<linearGradient id="SVGID_3_" gradientUnits="userSpaceOnUse" x1="-39515.6289" y1="-51426.8555" x2="-39515.6289" y2="-51316.2227" gradientTransform="matrix(1 0 0 -1 39570.9453 -51556.7969)">
				<stop  offset="0.1779" style="stop-color:#FAA61A"/>
				<stop  offset="1" style="stop-color:#FFC20E"/>
			</linearGradient>
			<path class="st3" d="M96-209c-4.3,9.4,1.2,18,1.2,28.2c0,6.8-5.2,13.7-12.6,13.7c-11.8,0-13.5-14.8-7-17.8
				c5.8-2.6,10.7,3.3,10.2,10.3c8.5-12.9,0.2-25-8.8-34.4c-8.8-9-10-18.1-4.7-23c-6.9,3.1-13.4,10.4-8.5,25.4
				c3.5,10.6,1.1,19.1-5.6,19.1c-3.5,0-7.4-4.6-7.1-9.4c-3.5,7.5-4.2,18.5,1.2,29.2c0,0-10.7-9.4-8.1-27.5
				c2.6-18,18.9-32.1,23.3-48.7c4.4-16.7-6.3-30.3-14-33.9c7.8,13.1-3.4,22.2-17,38.5c-10.7,12.8-8.9,23.3-7.3,30.2
				c-8-7.4-7.9-18.7-5.4-25.1c0,0-11,7.9-9.6,20.8c1.2,11.8,8,14.8,11.7,24.1c3.4,8.6,1.1,15.9-4.4,16.8c-5.6,0.9-9.7-2.7-10.2-9.7
				c-0.5-6.2,3.3-12.8-0.2-18.9c1.3,8.7-14.6,14.6-13,29.4c1.1,9.9,9.7,17,17.1,19.9c-0.9-3-0.4-5.7,1.6-7.1c3-2.1,8.3-0.2,11.8,4.1
				c3.5,4.4,3.9,9.6,0.8,11.6c-2.8,1.9-8.3,1-11.8-2.7c2.2,15.4,16.7,27.1,31.2,31.7c-3.8-13,0.5-24.7,13.3-34.4
				c-4.2,9-2.9,20.6,5.1,25.8c-2.6-21.3,39-22.4,41.3-47.7C112-186.4,94.5-197.2,96-209z"/>
		</g>
		<g>
			
				<linearGradient id="SVGID_4_" gradientUnits="userSpaceOnUse" x1="-39359.4414" y1="-51276.7344" x2="-39359.4414" y2="-51166.1055" gradientTransform="matrix(1 0 0 -1 39570.9453 -51556.7969)">
				<stop  offset="0.1779" style="stop-color:#FAA61A"/>
				<stop  offset="1" style="stop-color:#FFC20E"/>
			</linearGradient>
			<path class="st4" d="M252.2-359.1c-4.3,9.4,1.2,18,1.2,28.2c0,6.8-5.2,13.7-12.6,13.7c-11.8,0-13.5-14.8-7-17.8
				c5.8-2.6,10.7,3.3,10.2,10.3c8.5-12.9,0.2-25-8.8-34.4c-8.8-9-10-18.1-4.7-23c-6.9,3.1-13.4,10.4-8.5,25.4
				c3.5,10.6,1.1,19.1-5.6,19.1c-3.5,0-7.4-4.6-7.1-9.4c-3.5,7.5-4.2,18.5,1.2,29.2c0,0-10.7-9.4-8.1-27.5
				c2.6-18,18.9-32.1,23.3-48.7c4.4-16.7-6.3-30.3-14-33.9c7.8,13.1-3.4,22.2-17,38.5c-10.7,12.8-8.9,23.3-7.3,30.2
				c-8-7.4-7.9-18.7-5.4-25.1c0,0-11,7.9-9.6,20.8c1.2,11.8,8,14.8,11.7,24.1c3.4,8.6,1.1,15.9-4.4,16.8c-5.6,0.9-9.7-2.7-10.2-9.7
				c-0.5-6.2,3.3-12.8-0.2-18.9c1.3,8.7-14.6,14.6-13,29.4c1.1,9.9,9.7,17,17.1,19.9c-0.9-3-0.4-5.7,1.6-7.1c3-2.1,8.3-0.2,11.8,4.1
				c3.5,4.4,3.9,9.6,0.8,11.6c-2.8,1.9-8.3,1-11.8-2.7c2.2,15.4,16.7,27.1,31.2,31.7c-3.8-13,0.5-24.7,13.3-34.4
				c-4.2,9-2.9,20.6,5.1,25.8c-2.6-21.3,39-22.4,41.3-47.7C268.2-336.5,250.7-347.3,252.2-359.1z"/>
		</g>
		<g>
			
				<linearGradient id="SVGID_5_" gradientUnits="userSpaceOnUse" x1="-39438.8789" y1="-51359.2773" x2="-39438.8789" y2="-51243.2734" gradientTransform="matrix(1 0 0 -1 39570.9453 -51556.7969)">
				<stop  offset="0.1779" style="stop-color:#FFDD00"/>
				<stop  offset="1" style="stop-color:#FFC20E"/>
			</linearGradient>
			<path class="st5" d="M150.2-331.8c-10.2,27.3-53.7,35.4-58.1,55.4c2.5-4,10.2-6.4,12.8-1.8c1.9,3.3-0.1,7.9-5.1,10.6
				c-4.6,2.5-9.8,1.5-11.9-2c-2.8-4.5-0.6-10.9,3.1-15.3c-7.5,2-18.7,10.9-16.6,28.6c2.1,17.8,14.7,29.4,9.3,44.3
				c16.5-15.6,2.4-34,23-46.1c-11.2,13-15.7,40.4,1.3,62.8c-3.8-13.3-3.7-21.6-1.3-30.6c0,17.5,5,22.5,7.8,39.2
				c3.1,18.2-0.2,30-8.7,36.6c11.1-4,26.3-13.9,25.8-31.4c-0.3-10.5-2.5-14-4.1-22.8c-1.8-9.5,1.6-12.9,5-13.3
				c4.5-0.6,8.4,4.3,8.7,11.7c0.5,13.7-6.3,20.8-2.7,36.2c1.9-15.3,16.6-21.6,17.2-36.9c0.8-19.8-26.6-36.6-14.8-59.8
				c-0.8,11.8,2.1,19,8.2,25.2c-2.8-5.7-2.3-13.5,3.3-14.2c3.3-0.4,7.6,3.1,4.9,13.8c-3.1,12.4-3.6,28.3,9.9,41.8
				c-10-26.9,20-38.2,10.5-62.8c4.9,3.9,8.1,14.1,3.1,24.4c0,0,12.3-10.7,8.6-24.4c-4.5-16.8-28.1-26.1-34.3-41.8
				c0.3,5.9,0.8,10.2,4.2,18C147.3-297.3,149-321.5,150.2-331.8z"/>
			
				<linearGradient id="SVGID_6_" gradientUnits="userSpaceOnUse" x1="-39515.6289" y1="-51276.7344" x2="-39515.6289" y2="-51166.1055" gradientTransform="matrix(1 0 0 -1 39570.9453 -51556.7969)">
				<stop  offset="0.1779" style="stop-color:#FAA61A"/>
				<stop  offset="1" style="stop-color:#FFC20E"/>
			</linearGradient>
			<path class="st6" d="M96-359.1c-4.3,9.4,1.2,18,1.2,28.2c0,6.8-5.2,13.7-12.6,13.7c-11.8,0-13.5-14.8-7-17.8
				c5.8-2.6,10.7,3.3,10.2,10.3c8.5-12.9,0.2-25-8.8-34.4c-8.8-9-10-18.1-4.7-23c-6.9,3.1-13.4,10.4-8.5,25.4
				c3.5,10.6,1.1,19.1-5.6,19.1c-3.5,0-7.4-4.6-7.1-9.4c-3.5,7.5-4.2,18.5,1.2,29.2c0,0-10.7-9.4-8.1-27.5
				c2.6-18,18.9-32.1,23.3-48.7c4.4-16.7-6.3-30.3-14-33.9c7.8,13.1-3.4,22.2-17,38.5c-10.7,12.8-8.9,23.3-7.3,30.2
				c-8-7.4-7.9-18.7-5.4-25.1c0,0-11,7.9-9.6,20.8c1.2,11.8,8,14.8,11.7,24.1c3.4,8.6,1.1,15.9-4.4,16.8c-5.6,0.9-9.7-2.7-10.2-9.7
				c-0.5-6.2,3.3-12.8-0.2-18.9c1.3,8.7-14.6,14.6-13,29.4c1.1,9.9,9.7,17,17.1,19.9c-0.9-3-0.4-5.7,1.6-7.1c3-2.1,8.3-0.2,11.8,4.1
				c3.5,4.4,3.9,9.6,0.8,11.6c-2.8,1.9-8.3,1-11.8-2.7c2.2,15.4,16.7,27.1,31.2,31.7c-3.8-13,0.5-24.7,13.3-34.4
				c-4.2,9-2.9,20.6,5.1,25.8c-2.6-21.3,39-22.4,41.3-47.7C112-336.5,94.5-347.3,96-359.1z"/>
		</g>
	</g>
</pattern>
<path class="st7" d="M1824,984c0-17.3-6.3-32.3-19-45s-27.7-19-45-19s-32.3,6.3-45,19s-19,27.7-19,45s6.3,32.3,19,45s27.7,19,45,19
	s32.3-6.3,45-19S1824,1001.3,1824,984z M1952,220c0-126-55.7-189-167-189c-17.3,0-36,1.7-56,5c-10.7-20-28.2-35.8-52.5-47.5
	S1627.7-29,1603-29s-47.7,6-69,18c-33.3-35.3-73-53-119-53c-16.7,0-35.2,3.3-55.5,10s-36.2,15-47.5,25v-331c0-34.7-12.7-64.7-38-90
	s-55.3-38-90-38c-34,0-63.8,13-89.5,39s-38.5,55.7-38.5,89v576c-13.3,0-29.5-5-48.5-15s-37.3-21-55-33s-40.3-23-68-33
	s-55.8-15-84.5-15c-44.7,0-77.2,14.8-97.5,44.5S672,232.7,672,280c0,16,46.3,46,139,90c29.3,16,51,28.3,65,37
	c42.7,26.7,91,64,145,112c54,47.3,89.3,81,106,101c38,46,57,92.7,57,140v32h640v-32c0-48,10.7-103.7,32-167s42.7-127.8,64-193.5
	S1952,274,1952,220z M2080,215c0,88.7-23,196-69,322c-39.3,109.3-59,183.7-59,223v288c0,35.3-12.5,65.5-37.5,90.5
	s-55.2,37.5-90.5,37.5h-640c-35.3,0-65.5-12.5-90.5-37.5s-37.5-55.2-37.5-90.5V760c0-6.7-1.5-13.8-4.5-21.5s-7.7-15.5-14-23.5
	s-12.3-15.5-18-22.5c-5.7-7-13.2-15-22.5-24s-16.5-15.8-21.5-20.5s-12.2-11-21.5-19s-15-12.7-17-14c-49.3-43.3-92.3-76.7-129-100
	c-14-8.7-34.7-19.7-62-33s-51.3-25.7-72-37c-20.7-11.3-41.7-24.8-63-40.5c-21.3-15.7-37.8-34-49.5-55S544,305.3,544,280
	c0-83.3,22.3-152.2,67-206.5S718.7-8,800-8c45.3,0,88,7.3,128,22v-374c0-69.3,25.3-129.3,76-180c50.7-50.7,110.3-76,179-76
	c70,0,130.3,25.2,181,75.5s76,110.5,76,180.5v169c41.3,2.7,81,15,119,37c14-2,28.3-3,43-3c67.3,0,126.7,20,178,60
	c92.7-0.7,165.8,27.7,219.5,85C2053.2,45.3,2080,121,2080,215z"/>
</svg>
